<mxfile host="65bd71144e">
    <diagram id="SKY9MVwyk07XwnSpvNaC" name="Page-1">
        <mxGraphModel dx="924" dy="422" grid="1" gridSize="10" guides="1" tooltips="1" connect="1" arrows="1" fold="1" page="1" pageScale="1" pageWidth="850" pageHeight="1100" background="none" math="0" shadow="0">
            <root>
                <mxCell id="0"/>
                <mxCell id="1" parent="0"/>
                <mxCell id="2" value="Category" style="rounded=1;whiteSpace=wrap;html=1;fontSize=15;" parent="1" vertex="1">
                    <mxGeometry x="900" y="235" width="175" height="45" as="geometry"/>
                </mxCell>
                <mxCell id="3" value="CategoryID" style="ellipse;whiteSpace=wrap;html=1;fontSize=13;fontStyle=4;" parent="1" vertex="1">
                    <mxGeometry x="1060" y="130" width="120" height="50" as="geometry"/>
                </mxCell>
                <mxCell id="4" value="CategoryName" style="ellipse;whiteSpace=wrap;html=1;fontSize=13;fontStyle=0;" parent="1" vertex="1">
                    <mxGeometry x="910" y="80" width="120" height="50" as="geometry"/>
                </mxCell>
                <mxCell id="5" value="CDescription" style="ellipse;whiteSpace=wrap;html=1;fontSize=13;fontStyle=0;" parent="1" vertex="1">
                    <mxGeometry x="815" y="142.5" width="120" height="50" as="geometry"/>
                </mxCell>
                <mxCell id="6" value="" style="endArrow=none;html=1;fontSize=13;exitX=1;exitY=1;exitDx=0;exitDy=0;entryX=0.5;entryY=0;entryDx=0;entryDy=0;" parent="1" source="3" target="2" edge="1">
                    <mxGeometry width="50" height="50" relative="1" as="geometry">
                        <mxPoint x="931.2499999999964" y="69.99999999999989" as="sourcePoint"/>
                        <mxPoint x="900" y="300" as="targetPoint"/>
                    </mxGeometry>
                </mxCell>
                <mxCell id="11" value="" style="endArrow=none;html=1;fontSize=13;exitX=0.5;exitY=1;exitDx=0;exitDy=0;entryX=0.5;entryY=0;entryDx=0;entryDy=0;" parent="1" source="4" target="2" edge="1">
                    <mxGeometry width="50" height="50" relative="1" as="geometry">
                        <mxPoint x="931.2499999999964" y="139.9999999999999" as="sourcePoint"/>
                        <mxPoint x="1053.75" y="145" as="targetPoint"/>
                    </mxGeometry>
                </mxCell>
                <mxCell id="12" value="Product" style="rounded=1;whiteSpace=wrap;html=1;fontSize=15;" parent="1" vertex="1">
                    <mxGeometry x="337.5" y="350" width="175" height="45" as="geometry"/>
                </mxCell>
                <mxCell id="13" value="Stock" style="rounded=1;whiteSpace=wrap;html=1;fontSize=15;" parent="1" vertex="1">
                    <mxGeometry x="601" y="610" width="175" height="45" as="geometry"/>
                </mxCell>
                <mxCell id="14" value="Sales" style="rounded=1;whiteSpace=wrap;html=1;fontSize=15;" parent="1" vertex="1">
                    <mxGeometry x="1170" y="330" width="175" height="45" as="geometry"/>
                </mxCell>
                <mxCell id="16" value="Reports" style="rounded=1;whiteSpace=wrap;html=1;fontSize=15;" parent="1" vertex="1">
                    <mxGeometry x="1218" y="730" width="175" height="45" as="geometry"/>
                </mxCell>
                <mxCell id="20" value="ProductName" style="ellipse;whiteSpace=wrap;html=1;fontSize=13;fontStyle=0;" parent="1" vertex="1">
                    <mxGeometry x="180" y="252" width="120" height="50" as="geometry"/>
                </mxCell>
                <mxCell id="21" value="ProducID" style="ellipse;whiteSpace=wrap;html=1;fontSize=13;fontStyle=4;" parent="1" vertex="1">
                    <mxGeometry x="490" y="270" width="120" height="50" as="geometry"/>
                </mxCell>
                <mxCell id="22" value="CategoryID" style="ellipse;whiteSpace=wrap;html=1;fontSize=13;fontStyle=0;" parent="1" vertex="1">
                    <mxGeometry x="180" y="182" width="120" height="50" as="geometry"/>
                </mxCell>
                <mxCell id="23" value="Description" style="ellipse;whiteSpace=wrap;html=1;fontSize=13;fontStyle=0;" parent="1" vertex="1">
                    <mxGeometry x="180" y="112" width="120" height="50" as="geometry"/>
                </mxCell>
                <mxCell id="24" value="UnitPrice" style="ellipse;whiteSpace=wrap;html=1;fontSize=13;fontStyle=0;" parent="1" vertex="1">
                    <mxGeometry x="338" y="80" width="120" height="50" as="geometry"/>
                </mxCell>
                <mxCell id="27" value="ManufacturedDate" style="ellipse;whiteSpace=wrap;html=1;fontSize=13;fontStyle=0;" parent="1" vertex="1">
                    <mxGeometry x="480" y="209.5" width="140" height="50" as="geometry"/>
                </mxCell>
                <mxCell id="28" value="ExpiredDate" style="ellipse;whiteSpace=wrap;html=1;fontSize=13;fontStyle=0;" parent="1" vertex="1">
                    <mxGeometry x="480" y="129.5" width="130" height="50" as="geometry"/>
                </mxCell>
                <mxCell id="30" value="" style="endArrow=none;html=1;fontSize=15;entryX=0.5;entryY=0;entryDx=0;entryDy=0;exitX=0.5;exitY=1;exitDx=0;exitDy=0;" parent="1" source="21" target="12" edge="1">
                    <mxGeometry width="50" height="50" relative="1" as="geometry">
                        <mxPoint x="520" y="330" as="sourcePoint"/>
                        <mxPoint x="380" y="402" as="targetPoint"/>
                    </mxGeometry>
                </mxCell>
                <mxCell id="34" value="" style="endArrow=none;html=1;fontSize=15;exitX=0.976;exitY=0.373;exitDx=0;exitDy=0;exitPerimeter=0;entryX=0.5;entryY=0;entryDx=0;entryDy=0;" parent="1" source="20" target="12" edge="1">
                    <mxGeometry width="50" height="50" relative="1" as="geometry">
                        <mxPoint x="310" y="367" as="sourcePoint"/>
                        <mxPoint x="340" y="402" as="targetPoint"/>
                    </mxGeometry>
                </mxCell>
                <mxCell id="35" value="" style="endArrow=none;html=1;fontSize=15;entryX=0.5;entryY=0;entryDx=0;entryDy=0;exitX=1;exitY=0.5;exitDx=0;exitDy=0;" parent="1" source="22" target="12" edge="1">
                    <mxGeometry width="50" height="50" relative="1" as="geometry">
                        <mxPoint x="320" y="377" as="sourcePoint"/>
                        <mxPoint x="367.5" y="432" as="targetPoint"/>
                    </mxGeometry>
                </mxCell>
                <mxCell id="36" value="" style="endArrow=none;html=1;fontSize=15;entryX=0.5;entryY=0;entryDx=0;entryDy=0;exitX=1;exitY=0.5;exitDx=0;exitDy=0;" parent="1" source="23" target="12" edge="1">
                    <mxGeometry width="50" height="50" relative="1" as="geometry">
                        <mxPoint x="330" y="387" as="sourcePoint"/>
                        <mxPoint x="377.5" y="442" as="targetPoint"/>
                    </mxGeometry>
                </mxCell>
                <mxCell id="37" value="" style="endArrow=none;html=1;fontSize=15;entryX=0.5;entryY=0;entryDx=0;entryDy=0;exitX=0.5;exitY=1;exitDx=0;exitDy=0;" parent="1" source="24" target="12" edge="1">
                    <mxGeometry width="50" height="50" relative="1" as="geometry">
                        <mxPoint x="340" y="397" as="sourcePoint"/>
                        <mxPoint x="387.5" y="452" as="targetPoint"/>
                    </mxGeometry>
                </mxCell>
                <mxCell id="39" value="" style="endArrow=none;html=1;fontSize=15;entryX=0.5;entryY=0;entryDx=0;entryDy=0;exitX=0;exitY=0.5;exitDx=0;exitDy=0;" parent="1" source="28" target="12" edge="1">
                    <mxGeometry width="50" height="50" relative="1" as="geometry">
                        <mxPoint x="440" y="67" as="sourcePoint"/>
                        <mxPoint x="357.5" y="422" as="targetPoint"/>
                    </mxGeometry>
                </mxCell>
                <mxCell id="40" value="" style="endArrow=none;html=1;fontSize=15;entryX=0.5;entryY=0;entryDx=0;entryDy=0;exitX=0;exitY=0.5;exitDx=0;exitDy=0;" parent="1" source="27" target="12" edge="1">
                    <mxGeometry width="50" height="50" relative="1" as="geometry">
                        <mxPoint x="450" y="77" as="sourcePoint"/>
                        <mxPoint x="367.5" y="432" as="targetPoint"/>
                    </mxGeometry>
                </mxCell>
                <mxCell id="43" value="SalesID" style="ellipse;whiteSpace=wrap;html=1;fontSize=13;fontStyle=4;" parent="1" vertex="1">
                    <mxGeometry x="1330" y="50" width="130" height="50" as="geometry"/>
                </mxCell>
                <mxCell id="44" value="CategoryID" style="ellipse;whiteSpace=wrap;html=1;fontSize=13;fontStyle=0;" parent="1" vertex="1">
                    <mxGeometry x="1480" y="60" width="130" height="50" as="geometry"/>
                </mxCell>
                <mxCell id="45" value="ProductID" style="ellipse;whiteSpace=wrap;html=1;fontSize=13;fontStyle=0;" parent="1" vertex="1">
                    <mxGeometry x="1510" y="129.5" width="130" height="50" as="geometry"/>
                </mxCell>
                <mxCell id="46" value="SalesQuantity" style="ellipse;whiteSpace=wrap;html=1;fontSize=13;fontStyle=0;" parent="1" vertex="1">
                    <mxGeometry x="1520" y="192.5" width="130" height="50" as="geometry"/>
                </mxCell>
                <mxCell id="47" value="Price" style="ellipse;whiteSpace=wrap;html=1;fontSize=13;fontStyle=0;" parent="1" vertex="1">
                    <mxGeometry x="1530" y="252" width="130" height="50" as="geometry"/>
                </mxCell>
                <mxCell id="49" value="Total" style="ellipse;whiteSpace=wrap;html=1;fontSize=13;fontStyle=0;dashed=1;" parent="1" vertex="1">
                    <mxGeometry x="1540" y="310" width="130" height="50" as="geometry"/>
                </mxCell>
                <mxCell id="50" value="" style="endArrow=none;html=1;fontSize=15;entryX=0.5;entryY=1;entryDx=0;entryDy=0;exitX=1;exitY=0.5;exitDx=0;exitDy=0;" parent="1" source="14" target="43" edge="1">
                    <mxGeometry width="50" height="50" relative="1" as="geometry">
                        <mxPoint x="1300" y="290" as="sourcePoint"/>
                        <mxPoint x="1350" y="240" as="targetPoint"/>
                    </mxGeometry>
                </mxCell>
                <mxCell id="52" value="" style="endArrow=none;html=1;fontSize=15;entryX=0;entryY=0.5;entryDx=0;entryDy=0;exitX=1;exitY=0.5;exitDx=0;exitDy=0;" parent="1" source="14" target="44" edge="1">
                    <mxGeometry width="50" height="50" relative="1" as="geometry">
                        <mxPoint x="1385.0000000000005" y="227.5" as="sourcePoint"/>
                        <mxPoint x="1450" y="75" as="targetPoint"/>
                    </mxGeometry>
                </mxCell>
                <mxCell id="53" value="" style="endArrow=none;html=1;fontSize=15;entryX=0;entryY=0.5;entryDx=0;entryDy=0;exitX=1;exitY=0.5;exitDx=0;exitDy=0;" parent="1" source="14" target="45" edge="1">
                    <mxGeometry width="50" height="50" relative="1" as="geometry">
                        <mxPoint x="1395.0000000000005" y="237.5" as="sourcePoint"/>
                        <mxPoint x="1460" y="85" as="targetPoint"/>
                    </mxGeometry>
                </mxCell>
                <mxCell id="54" value="" style="endArrow=none;html=1;fontSize=15;entryX=0;entryY=0.5;entryDx=0;entryDy=0;exitX=1;exitY=0.5;exitDx=0;exitDy=0;" parent="1" source="14" target="46" edge="1">
                    <mxGeometry width="50" height="50" relative="1" as="geometry">
                        <mxPoint x="1405.0000000000005" y="247.5" as="sourcePoint"/>
                        <mxPoint x="1470" y="95" as="targetPoint"/>
                    </mxGeometry>
                </mxCell>
                <mxCell id="55" value="" style="endArrow=none;html=1;fontSize=15;entryX=0;entryY=0.5;entryDx=0;entryDy=0;exitX=1;exitY=0.5;exitDx=0;exitDy=0;" parent="1" source="14" target="47" edge="1">
                    <mxGeometry width="50" height="50" relative="1" as="geometry">
                        <mxPoint x="1415.0000000000005" y="257.5" as="sourcePoint"/>
                        <mxPoint x="1480" y="105" as="targetPoint"/>
                    </mxGeometry>
                </mxCell>
                <mxCell id="56" value="" style="endArrow=none;html=1;fontSize=15;entryX=0;entryY=0.5;entryDx=0;entryDy=0;exitX=1;exitY=0.5;exitDx=0;exitDy=0;" parent="1" source="14" target="49" edge="1">
                    <mxGeometry width="50" height="50" relative="1" as="geometry">
                        <mxPoint x="1380" y="210" as="sourcePoint"/>
                        <mxPoint x="1490" y="115" as="targetPoint"/>
                    </mxGeometry>
                </mxCell>
                <mxCell id="58" value="StockID" style="ellipse;whiteSpace=wrap;html=1;fontSize=13;fontStyle=4;" parent="1" vertex="1">
                    <mxGeometry x="410" y="630" width="120" height="50" as="geometry"/>
                </mxCell>
                <mxCell id="59" value="ProductID" style="ellipse;whiteSpace=wrap;html=1;fontSize=13;fontStyle=0;" parent="1" vertex="1">
                    <mxGeometry x="380" y="687.5" width="120" height="50" as="geometry"/>
                </mxCell>
                <mxCell id="60" value="StockQuantity" style="ellipse;whiteSpace=wrap;html=1;fontSize=13;fontStyle=0;" parent="1" vertex="1">
                    <mxGeometry x="425" y="760" width="120" height="50" as="geometry"/>
                </mxCell>
                <mxCell id="61" value="CurrentDate" style="ellipse;whiteSpace=wrap;html=1;fontSize=13;fontStyle=0;" parent="1" vertex="1">
                    <mxGeometry x="525" y="717.5" width="120" height="50" as="geometry"/>
                </mxCell>
                <mxCell id="65" value="" style="endArrow=none;html=1;fontSize=15;entryX=1;entryY=0.5;entryDx=0;entryDy=0;exitX=0;exitY=0.5;exitDx=0;exitDy=0;" parent="1" source="13" target="58" edge="1">
                    <mxGeometry width="50" height="50" relative="1" as="geometry">
                        <mxPoint x="530" y="570" as="sourcePoint"/>
                        <mxPoint x="580" y="520" as="targetPoint"/>
                    </mxGeometry>
                </mxCell>
                <mxCell id="66" value="" style="endArrow=none;html=1;fontSize=15;exitX=0;exitY=0.5;exitDx=0;exitDy=0;entryX=1;entryY=0.5;entryDx=0;entryDy=0;" parent="1" source="13" target="59" edge="1">
                    <mxGeometry width="50" height="50" relative="1" as="geometry">
                        <mxPoint x="348" y="522.5" as="sourcePoint"/>
                        <mxPoint x="240" y="375" as="targetPoint"/>
                    </mxGeometry>
                </mxCell>
                <mxCell id="68" value="" style="endArrow=none;html=1;fontSize=15;entryX=0.5;entryY=0;entryDx=0;entryDy=0;exitX=0;exitY=0.5;exitDx=0;exitDy=0;" parent="1" source="13" target="60" edge="1">
                    <mxGeometry width="50" height="50" relative="1" as="geometry">
                        <mxPoint x="358" y="532.5" as="sourcePoint"/>
                        <mxPoint x="250" y="385" as="targetPoint"/>
                    </mxGeometry>
                </mxCell>
                <mxCell id="69" value="" style="endArrow=none;html=1;fontSize=15;entryX=0.5;entryY=0;entryDx=0;entryDy=0;exitX=0;exitY=0.5;exitDx=0;exitDy=0;" parent="1" source="13" target="61" edge="1">
                    <mxGeometry width="50" height="50" relative="1" as="geometry">
                        <mxPoint x="368" y="542.5" as="sourcePoint"/>
                        <mxPoint x="260" y="395" as="targetPoint"/>
                    </mxGeometry>
                </mxCell>
                <mxCell id="72" value="Purchase" style="rounded=1;whiteSpace=wrap;html=1;fontSize=15;" parent="1" vertex="1">
                    <mxGeometry x="180" y="495" width="175" height="45" as="geometry"/>
                </mxCell>
                <mxCell id="73" value="PurchaseID" style="ellipse;whiteSpace=wrap;html=1;fontSize=13;fontStyle=4;" parent="1" vertex="1">
                    <mxGeometry x="300" y="590.75" width="120" height="50" as="geometry"/>
                </mxCell>
                <mxCell id="74" value="ProductID" style="ellipse;whiteSpace=wrap;html=1;fontSize=13;fontStyle=0;" parent="1" vertex="1">
                    <mxGeometry x="20" y="570" width="120" height="50" as="geometry"/>
                </mxCell>
                <mxCell id="75" value="purchseQuantity" style="ellipse;whiteSpace=wrap;html=1;fontSize=13;fontStyle=0;" parent="1" vertex="1">
                    <mxGeometry x="20" y="630" width="120" height="50" as="geometry"/>
                </mxCell>
                <mxCell id="76" value="PurchasePrice" style="ellipse;whiteSpace=wrap;html=1;fontSize=13;fontStyle=0;" parent="1" vertex="1">
                    <mxGeometry x="180" y="750" width="120" height="50" as="geometry"/>
                </mxCell>
                <mxCell id="77" value="PurchaseData" style="ellipse;whiteSpace=wrap;html=1;fontSize=13;fontStyle=0;" parent="1" vertex="1">
                    <mxGeometry x="70" y="710" width="120" height="50" as="geometry"/>
                </mxCell>
                <mxCell id="78" value="" style="endArrow=none;html=1;fontSize=15;entryX=0.5;entryY=1;entryDx=0;entryDy=0;exitX=0;exitY=0;exitDx=0;exitDy=0;" parent="1" source="73" target="72" edge="1">
                    <mxGeometry width="50" height="50" relative="1" as="geometry">
                        <mxPoint x="-380" y="797.5" as="sourcePoint"/>
                        <mxPoint x="-330" y="747.5" as="targetPoint"/>
                    </mxGeometry>
                </mxCell>
                <mxCell id="79" value="" style="endArrow=none;html=1;fontSize=15;entryX=0.5;entryY=1;entryDx=0;entryDy=0;exitX=1;exitY=0.5;exitDx=0;exitDy=0;" parent="1" source="74" target="72" edge="1">
                    <mxGeometry width="50" height="50" relative="1" as="geometry">
                        <mxPoint x="-610" y="882.5" as="sourcePoint"/>
                        <mxPoint x="-412.5000000000002" y="762.4999999999998" as="targetPoint"/>
                    </mxGeometry>
                </mxCell>
                <mxCell id="80" value="" style="endArrow=none;html=1;fontSize=15;entryX=0.5;entryY=1;entryDx=0;entryDy=0;exitX=1;exitY=0;exitDx=0;exitDy=0;" parent="1" source="75" target="72" edge="1">
                    <mxGeometry width="50" height="50" relative="1" as="geometry">
                        <mxPoint x="-459.9999999999998" y="912.4999999999998" as="sourcePoint"/>
                        <mxPoint x="-412.5000000000002" y="762.4999999999998" as="targetPoint"/>
                    </mxGeometry>
                </mxCell>
                <mxCell id="81" value="" style="endArrow=none;html=1;fontSize=15;entryX=0.5;entryY=1;entryDx=0;entryDy=0;exitX=0.5;exitY=0;exitDx=0;exitDy=0;" parent="1" source="76" target="72" edge="1">
                    <mxGeometry width="50" height="50" relative="1" as="geometry">
                        <mxPoint x="880.0000000000002" y="989.9999999999998" as="sourcePoint"/>
                        <mxPoint x="927.4999999999998" y="839.9999999999998" as="targetPoint"/>
                    </mxGeometry>
                </mxCell>
                <mxCell id="82" value="" style="endArrow=none;html=1;fontSize=15;entryX=0.5;entryY=1;entryDx=0;entryDy=0;exitX=0.5;exitY=0;exitDx=0;exitDy=0;" parent="1" source="77" target="72" edge="1">
                    <mxGeometry width="50" height="50" relative="1" as="geometry">
                        <mxPoint x="890.0000000000002" y="999.9999999999998" as="sourcePoint"/>
                        <mxPoint x="937.4999999999998" y="849.9999999999998" as="targetPoint"/>
                    </mxGeometry>
                </mxCell>
                <mxCell id="94" value="ReportID" style="ellipse;whiteSpace=wrap;html=1;fontSize=13;fontStyle=4;" parent="1" vertex="1">
                    <mxGeometry x="1480" y="630" width="120" height="50" as="geometry"/>
                </mxCell>
                <mxCell id="96" value="PeriodStart" style="ellipse;whiteSpace=wrap;html=1;fontSize=13;fontStyle=0;" parent="1" vertex="1">
                    <mxGeometry x="1490" y="700" width="120" height="50" as="geometry"/>
                </mxCell>
                <mxCell id="97" value="PeriodEnd" style="ellipse;whiteSpace=wrap;html=1;fontSize=13;fontStyle=0;" parent="1" vertex="1">
                    <mxGeometry x="1490" y="760" width="120" height="50" as="geometry"/>
                </mxCell>
                <mxCell id="98" value="TotalRevenue" style="ellipse;whiteSpace=wrap;html=1;fontSize=13;fontStyle=0;" parent="1" vertex="1">
                    <mxGeometry x="1500" y="820" width="120" height="50" as="geometry"/>
                </mxCell>
                <mxCell id="99" value="TotalCOGS" style="ellipse;whiteSpace=wrap;html=1;fontSize=13;fontStyle=0;" parent="1" vertex="1">
                    <mxGeometry x="1460" y="880" width="120" height="50" as="geometry"/>
                </mxCell>
                <mxCell id="100" value="GrossProfit" style="ellipse;whiteSpace=wrap;html=1;fontSize=13;fontStyle=0;dashed=1;" parent="1" vertex="1">
                    <mxGeometry x="1460" y="942.5" width="120" height="50" as="geometry"/>
                </mxCell>
                <mxCell id="103" value="RepprtDate" style="ellipse;whiteSpace=wrap;html=1;fontSize=13;fontStyle=0;" parent="1" vertex="1">
                    <mxGeometry x="1420" y="1002.5" width="120" height="50" as="geometry"/>
                </mxCell>
                <mxCell id="104" value="" style="endArrow=none;html=1;fontSize=15;entryX=0;entryY=0.5;entryDx=0;entryDy=0;exitX=1;exitY=0.5;exitDx=0;exitDy=0;" parent="1" source="16" target="94" edge="1">
                    <mxGeometry width="50" height="50" relative="1" as="geometry">
                        <mxPoint x="1140" y="810" as="sourcePoint"/>
                        <mxPoint x="1190" y="760" as="targetPoint"/>
                    </mxGeometry>
                </mxCell>
                <mxCell id="105" value="" style="endArrow=none;html=1;fontSize=15;entryX=0;entryY=0.5;entryDx=0;entryDy=0;exitX=1;exitY=0.5;exitDx=0;exitDy=0;" parent="1" source="16" target="96" edge="1">
                    <mxGeometry width="50" height="50" relative="1" as="geometry">
                        <mxPoint x="1355" y="732.4999999999998" as="sourcePoint"/>
                        <mxPoint x="1450" y="570" as="targetPoint"/>
                    </mxGeometry>
                </mxCell>
                <mxCell id="106" value="" style="endArrow=none;html=1;fontSize=15;entryX=0;entryY=0.5;entryDx=0;entryDy=0;exitX=1;exitY=0.5;exitDx=0;exitDy=0;" parent="1" source="16" target="97" edge="1">
                    <mxGeometry width="50" height="50" relative="1" as="geometry">
                        <mxPoint x="1365" y="742.4999999999998" as="sourcePoint"/>
                        <mxPoint x="1460" y="580" as="targetPoint"/>
                    </mxGeometry>
                </mxCell>
                <mxCell id="107" value="" style="endArrow=none;html=1;fontSize=15;entryX=0;entryY=0.5;entryDx=0;entryDy=0;exitX=1;exitY=0.5;exitDx=0;exitDy=0;" parent="1" source="16" target="98" edge="1">
                    <mxGeometry width="50" height="50" relative="1" as="geometry">
                        <mxPoint x="1375" y="752.4999999999998" as="sourcePoint"/>
                        <mxPoint x="1470" y="590" as="targetPoint"/>
                    </mxGeometry>
                </mxCell>
                <mxCell id="108" value="" style="endArrow=none;html=1;fontSize=15;entryX=0;entryY=0.5;entryDx=0;entryDy=0;exitX=1;exitY=0.5;exitDx=0;exitDy=0;" parent="1" source="16" target="99" edge="1">
                    <mxGeometry width="50" height="50" relative="1" as="geometry">
                        <mxPoint x="1385" y="762.4999999999998" as="sourcePoint"/>
                        <mxPoint x="1480" y="600" as="targetPoint"/>
                    </mxGeometry>
                </mxCell>
                <mxCell id="109" value="" style="endArrow=none;html=1;fontSize=15;entryX=0;entryY=0.5;entryDx=0;entryDy=0;exitX=1;exitY=0.5;exitDx=0;exitDy=0;" parent="1" source="16" target="100" edge="1">
                    <mxGeometry width="50" height="50" relative="1" as="geometry">
                        <mxPoint x="1395" y="772.4999999999998" as="sourcePoint"/>
                        <mxPoint x="1490" y="610" as="targetPoint"/>
                    </mxGeometry>
                </mxCell>
                <mxCell id="111" value="" style="endArrow=none;html=1;fontSize=15;entryX=0;entryY=0.5;entryDx=0;entryDy=0;exitX=1;exitY=0.5;exitDx=0;exitDy=0;" parent="1" source="16" target="103" edge="1">
                    <mxGeometry width="50" height="50" relative="1" as="geometry">
                        <mxPoint x="1415" y="792.4999999999998" as="sourcePoint"/>
                        <mxPoint x="1510" y="630" as="targetPoint"/>
                    </mxGeometry>
                </mxCell>
                <mxCell id="112" value="contains" style="rhombus;whiteSpace=wrap;html=1;fontSize=15;" parent="1" vertex="1">
                    <mxGeometry x="660" y="330" width="110" height="90" as="geometry"/>
                </mxCell>
                <mxCell id="114" value="Of" style="rhombus;whiteSpace=wrap;html=1;fontSize=15;" parent="1" vertex="1">
                    <mxGeometry x="880" y="480" width="110" height="90" as="geometry"/>
                </mxCell>
                <mxCell id="119" value="User" style="rounded=1;whiteSpace=wrap;html=1;fontSize=15;" parent="1" vertex="1">
                    <mxGeometry x="1000.5" y="895.75" width="175" height="45" as="geometry"/>
                </mxCell>
                <mxCell id="120" value="UserID" style="ellipse;whiteSpace=wrap;html=1;fontSize=13;fontStyle=0;" parent="1" vertex="1">
                    <mxGeometry x="920" y="805.75" width="120" height="50" as="geometry"/>
                </mxCell>
                <mxCell id="121" value="Email" style="ellipse;whiteSpace=wrap;html=1;fontSize=13;fontStyle=0;" parent="1" vertex="1">
                    <mxGeometry x="860" y="935.75" width="120" height="50" as="geometry"/>
                </mxCell>
                <mxCell id="122" value="Username" style="ellipse;whiteSpace=wrap;html=1;fontSize=13;fontStyle=0;" parent="1" vertex="1">
                    <mxGeometry x="1150.75" y="952.5" width="120" height="50" as="geometry"/>
                </mxCell>
                <mxCell id="123" value="Password" style="ellipse;whiteSpace=wrap;html=1;fontSize=13;fontStyle=0;" parent="1" vertex="1">
                    <mxGeometry x="1120" y="1015.75" width="120" height="50" as="geometry"/>
                </mxCell>
                <mxCell id="124" value="Role" style="ellipse;whiteSpace=wrap;html=1;fontSize=13;fontStyle=0;" parent="1" vertex="1">
                    <mxGeometry x="1000" y="1038.25" width="120" height="50" as="geometry"/>
                </mxCell>
                <mxCell id="126" value="" style="endArrow=none;html=1;fontSize=15;entryX=0.5;entryY=1;entryDx=0;entryDy=0;exitX=1;exitY=0.5;exitDx=0;exitDy=0;" parent="1" source="121" target="119" edge="1">
                    <mxGeometry width="50" height="50" relative="1" as="geometry">
                        <mxPoint x="872.5" y="1023.25" as="sourcePoint"/>
                        <mxPoint x="896.25" y="960.75" as="targetPoint"/>
                    </mxGeometry>
                </mxCell>
                <mxCell id="127" value="" style="endArrow=none;html=1;fontSize=15;entryX=0.5;entryY=1;entryDx=0;entryDy=0;exitX=0;exitY=0.5;exitDx=0;exitDy=0;" parent="1" source="122" target="119" edge="1">
                    <mxGeometry width="50" height="50" relative="1" as="geometry">
                        <mxPoint x="1140" y="980.75" as="sourcePoint"/>
                        <mxPoint x="906.25" y="970.75" as="targetPoint"/>
                    </mxGeometry>
                </mxCell>
                <mxCell id="128" value="" style="endArrow=none;html=1;fontSize=15;entryX=0.5;entryY=1;entryDx=0;entryDy=0;exitX=0;exitY=0.5;exitDx=0;exitDy=0;" parent="1" source="123" target="119" edge="1">
                    <mxGeometry width="50" height="50" relative="1" as="geometry">
                        <mxPoint x="892.5" y="1043.25" as="sourcePoint"/>
                        <mxPoint x="916.25" y="980.75" as="targetPoint"/>
                    </mxGeometry>
                </mxCell>
                <mxCell id="129" value="" style="endArrow=none;html=1;fontSize=15;entryX=0.5;entryY=1;entryDx=0;entryDy=0;exitX=0.5;exitY=0;exitDx=0;exitDy=0;" parent="1" source="124" target="119" edge="1">
                    <mxGeometry width="50" height="50" relative="1" as="geometry">
                        <mxPoint x="902.5" y="1053.25" as="sourcePoint"/>
                        <mxPoint x="926.25" y="990.75" as="targetPoint"/>
                    </mxGeometry>
                </mxCell>
                <mxCell id="143" value="Notification" style="rounded=1;whiteSpace=wrap;html=1;fontSize=15;" parent="1" vertex="1">
                    <mxGeometry x="773" y="733.25" width="175" height="45" as="geometry"/>
                </mxCell>
                <mxCell id="144" value="NotificationID" style="ellipse;whiteSpace=wrap;html=1;fontSize=13;fontStyle=4;" parent="1" vertex="1">
                    <mxGeometry x="620" y="775.75" width="120" height="50" as="geometry"/>
                </mxCell>
                <mxCell id="145" value="Type" style="ellipse;whiteSpace=wrap;html=1;fontSize=13;fontStyle=0;" parent="1" vertex="1">
                    <mxGeometry x="580" y="835.75" width="120" height="50" as="geometry"/>
                </mxCell>
                <mxCell id="146" value="Message" style="ellipse;whiteSpace=wrap;html=1;fontSize=13;fontStyle=0;" parent="1" vertex="1">
                    <mxGeometry x="598" y="920" width="120" height="50" as="geometry"/>
                </mxCell>
                <mxCell id="147" value="CurrentDate" style="ellipse;whiteSpace=wrap;html=1;fontSize=13;fontStyle=0;" parent="1" vertex="1">
                    <mxGeometry x="720" y="875.75" width="120" height="50" as="geometry"/>
                </mxCell>
                <mxCell id="148" value="" style="endArrow=none;html=1;fontSize=15;entryX=0.5;entryY=1;entryDx=0;entryDy=0;exitX=1;exitY=0.5;exitDx=0;exitDy=0;" parent="1" source="144" target="143" edge="1">
                    <mxGeometry width="50" height="50" relative="1" as="geometry">
                        <mxPoint x="590" y="835.75" as="sourcePoint"/>
                        <mxPoint x="640" y="785.75" as="targetPoint"/>
                    </mxGeometry>
                </mxCell>
                <mxCell id="149" value="" style="endArrow=none;html=1;fontSize=15;entryX=0.5;entryY=1;entryDx=0;entryDy=0;exitX=1;exitY=0.5;exitDx=0;exitDy=0;" parent="1" source="145" target="143" edge="1">
                    <mxGeometry width="50" height="50" relative="1" as="geometry">
                        <mxPoint x="564.9999999999964" y="880.75" as="sourcePoint"/>
                        <mxPoint x="607.5" y="820.75" as="targetPoint"/>
                    </mxGeometry>
                </mxCell>
                <mxCell id="150" value="" style="endArrow=none;html=1;fontSize=15;entryX=0.5;entryY=1;entryDx=0;entryDy=0;exitX=0.5;exitY=0;exitDx=0;exitDy=0;" parent="1" source="146" target="143" edge="1">
                    <mxGeometry width="50" height="50" relative="1" as="geometry">
                        <mxPoint x="564.9999999999964" y="950.75" as="sourcePoint"/>
                        <mxPoint x="607.5" y="820.75" as="targetPoint"/>
                    </mxGeometry>
                </mxCell>
                <mxCell id="151" value="" style="endArrow=none;html=1;fontSize=15;entryX=0.5;entryY=1;entryDx=0;entryDy=0;exitX=0.5;exitY=0;exitDx=0;exitDy=0;" parent="1" source="147" target="143" edge="1">
                    <mxGeometry width="50" height="50" relative="1" as="geometry">
                        <mxPoint x="574.9999999999964" y="960.75" as="sourcePoint"/>
                        <mxPoint x="617.5" y="830.75" as="targetPoint"/>
                    </mxGeometry>
                </mxCell>
                <mxCell id="160" value="UserID" style="ellipse;whiteSpace=wrap;html=1;fontSize=13;fontStyle=4;" parent="1" vertex="1">
                    <mxGeometry x="870" y="1005.75" width="120" height="50" as="geometry"/>
                </mxCell>
                <mxCell id="163" value="" style="endArrow=none;html=1;fontSize=15;entryX=0.5;entryY=1;entryDx=0;entryDy=0;exitX=1;exitY=0.5;exitDx=0;exitDy=0;" parent="1" source="160" target="119" edge="1">
                    <mxGeometry width="50" height="50" relative="1" as="geometry">
                        <mxPoint x="1170" y="915.75" as="sourcePoint"/>
                        <mxPoint x="1220" y="865.75" as="targetPoint"/>
                    </mxGeometry>
                </mxCell>
                <mxCell id="164" value="to" style="rhombus;whiteSpace=wrap;html=1;fontSize=15;" parent="1" vertex="1">
                    <mxGeometry x="1043" y="721.75" width="90" height="70" as="geometry"/>
                </mxCell>
                <mxCell id="165" value="" style="endArrow=none;html=1;fontSize=15;entryX=1;entryY=0.5;entryDx=0;entryDy=0;exitX=0;exitY=0.5;exitDx=0;exitDy=0;" parent="1" source="164" target="143" edge="1">
                    <mxGeometry width="50" height="50" relative="1" as="geometry">
                        <mxPoint x="1170" y="865.75" as="sourcePoint"/>
                        <mxPoint x="1220" y="815.75" as="targetPoint"/>
                    </mxGeometry>
                </mxCell>
                <mxCell id="168" value="n" style="edgeLabel;html=1;align=center;verticalAlign=middle;resizable=0;points=[];fontSize=15;" parent="165" vertex="1" connectable="0">
                    <mxGeometry x="-0.171" y="-3" relative="1" as="geometry">
                        <mxPoint as="offset"/>
                    </mxGeometry>
                </mxCell>
                <mxCell id="167" value="" style="endArrow=none;html=1;fontSize=15;exitX=0.5;exitY=1;exitDx=0;exitDy=0;entryX=0.5;entryY=0;entryDx=0;entryDy=0;" parent="1" source="164" target="119" edge="1">
                    <mxGeometry width="50" height="50" relative="1" as="geometry">
                        <mxPoint x="1040" y="750.75" as="sourcePoint"/>
                        <mxPoint x="1075" y="805.75" as="targetPoint"/>
                    </mxGeometry>
                </mxCell>
                <mxCell id="169" value="1" style="edgeLabel;html=1;align=center;verticalAlign=middle;resizable=0;points=[];fontSize=15;" parent="167" vertex="1" connectable="0">
                    <mxGeometry x="-0.1488" relative="1" as="geometry">
                        <mxPoint as="offset"/>
                    </mxGeometry>
                </mxCell>
                <mxCell id="170" value="StockID" style="ellipse;whiteSpace=wrap;html=1;fontSize=13;fontStyle=0;" parent="1" vertex="1">
                    <mxGeometry x="828" y="845.75" width="120" height="50" as="geometry"/>
                </mxCell>
                <mxCell id="171" value="" style="endArrow=none;html=1;fontSize=15;entryX=0.5;entryY=1;entryDx=0;entryDy=0;exitX=0.5;exitY=0;exitDx=0;exitDy=0;" parent="1" source="170" target="143" edge="1">
                    <mxGeometry width="50" height="50" relative="1" as="geometry">
                        <mxPoint x="1250" y="835.75" as="sourcePoint"/>
                        <mxPoint x="1300" y="785.75" as="targetPoint"/>
                    </mxGeometry>
                </mxCell>
                <mxCell id="183" value="alert" style="rhombus;whiteSpace=wrap;html=1;fontSize=15;" parent="1" vertex="1">
                    <mxGeometry x="858.5" y="640.75" width="90" height="70" as="geometry"/>
                </mxCell>
                <mxCell id="184" value="" style="endArrow=none;html=1;fontSize=15;entryX=1;entryY=0.75;entryDx=0;entryDy=0;exitX=0.5;exitY=0;exitDx=0;exitDy=0;" parent="1" source="183" target="13" edge="1">
                    <mxGeometry width="50" height="50" relative="1" as="geometry">
                        <mxPoint x="680" y="610" as="sourcePoint"/>
                        <mxPoint x="730" y="560" as="targetPoint"/>
                    </mxGeometry>
                </mxCell>
                <mxCell id="186" value="1" style="edgeLabel;html=1;align=center;verticalAlign=middle;resizable=0;points=[];fontSize=15;" parent="184" vertex="1" connectable="0">
                    <mxGeometry x="-0.1528" relative="1" as="geometry">
                        <mxPoint as="offset"/>
                    </mxGeometry>
                </mxCell>
                <mxCell id="185" value="" style="endArrow=none;html=1;fontSize=15;entryX=0.75;entryY=0;entryDx=0;entryDy=0;exitX=0.5;exitY=1;exitDx=0;exitDy=0;" parent="1" source="183" target="143" edge="1">
                    <mxGeometry width="50" height="50" relative="1" as="geometry">
                        <mxPoint x="402.4999999999998" y="580" as="sourcePoint"/>
                        <mxPoint x="429.9999999999998" y="545" as="targetPoint"/>
                    </mxGeometry>
                </mxCell>
                <mxCell id="187" value="n" style="edgeLabel;html=1;align=center;verticalAlign=middle;resizable=0;points=[];fontSize=15;" parent="185" vertex="1" connectable="0">
                    <mxGeometry x="-0.4706" relative="1" as="geometry">
                        <mxPoint as="offset"/>
                    </mxGeometry>
                </mxCell>
                <mxCell id="189" value="" style="endArrow=none;html=1;fontSize=13;exitX=0.5;exitY=1;exitDx=0;exitDy=0;entryX=0.5;entryY=0;entryDx=0;entryDy=0;" parent="1" source="5" target="2" edge="1">
                    <mxGeometry width="50" height="50" relative="1" as="geometry">
                        <mxPoint x="980" y="140.00000000000023" as="sourcePoint"/>
                        <mxPoint x="990" y="280" as="targetPoint"/>
                    </mxGeometry>
                </mxCell>
                <mxCell id="191" value="" style="endArrow=none;html=1;exitX=1;exitY=0.5;exitDx=0;exitDy=0;entryX=0;entryY=0.5;entryDx=0;entryDy=0;" parent="1" source="12" target="112" edge="1">
                    <mxGeometry width="50" height="50" relative="1" as="geometry">
                        <mxPoint x="940" y="510" as="sourcePoint"/>
                        <mxPoint x="990" y="460" as="targetPoint"/>
                    </mxGeometry>
                </mxCell>
                <mxCell id="218" value="n" style="edgeLabel;html=1;align=center;verticalAlign=middle;resizable=0;points=[];" parent="191" vertex="1" connectable="0">
                    <mxGeometry x="0.3553" relative="1" as="geometry">
                        <mxPoint as="offset"/>
                    </mxGeometry>
                </mxCell>
                <mxCell id="192" value="" style="endArrow=none;html=1;exitX=0.5;exitY=1;exitDx=0;exitDy=0;entryX=1;entryY=0.5;entryDx=0;entryDy=0;" parent="1" source="2" target="112" edge="1">
                    <mxGeometry width="50" height="50" relative="1" as="geometry">
                        <mxPoint x="517.5" y="382.5" as="sourcePoint"/>
                        <mxPoint x="670" y="385" as="targetPoint"/>
                        <Array as="points">
                            <mxPoint x="988" y="375"/>
                        </Array>
                    </mxGeometry>
                </mxCell>
                <mxCell id="219" value="1" style="edgeLabel;html=1;align=center;verticalAlign=middle;resizable=0;points=[];" parent="192" vertex="1" connectable="0">
                    <mxGeometry x="0.1827" y="-4" relative="1" as="geometry">
                        <mxPoint as="offset"/>
                    </mxGeometry>
                </mxCell>
                <mxCell id="194" value="" style="endArrow=none;html=1;exitX=0.75;exitY=0;exitDx=0;exitDy=0;entryX=0;entryY=0.5;entryDx=0;entryDy=0;" parent="1" source="13" target="114" edge="1">
                    <mxGeometry width="50" height="50" relative="1" as="geometry">
                        <mxPoint x="830" y="540" as="sourcePoint"/>
                        <mxPoint x="880" y="490" as="targetPoint"/>
                        <Array as="points">
                            <mxPoint x="732" y="530"/>
                        </Array>
                    </mxGeometry>
                </mxCell>
                <mxCell id="213" value="1" style="edgeLabel;html=1;align=center;verticalAlign=middle;resizable=0;points=[];" parent="194" vertex="1" connectable="0">
                    <mxGeometry x="0.4536" y="-4" relative="1" as="geometry">
                        <mxPoint x="-1" as="offset"/>
                    </mxGeometry>
                </mxCell>
                <mxCell id="195" value="" style="endArrow=none;html=1;entryX=0;entryY=0.5;entryDx=0;entryDy=0;exitX=1;exitY=0.5;exitDx=0;exitDy=0;" parent="1" source="114" target="14" edge="1">
                    <mxGeometry width="50" height="50" relative="1" as="geometry">
                        <mxPoint x="850" y="640" as="sourcePoint"/>
                        <mxPoint x="900" y="590" as="targetPoint"/>
                        <Array as="points">
                            <mxPoint x="1100" y="525"/>
                            <mxPoint x="1100" y="353"/>
                        </Array>
                    </mxGeometry>
                </mxCell>
                <mxCell id="214" value="1" style="edgeLabel;html=1;align=center;verticalAlign=middle;resizable=0;points=[];" parent="195" vertex="1" connectable="0">
                    <mxGeometry x="-0.0863" y="-3" relative="1" as="geometry">
                        <mxPoint x="-43" y="46" as="offset"/>
                    </mxGeometry>
                </mxCell>
                <mxCell id="197" value="has" style="rhombus;whiteSpace=wrap;html=1;fontSize=15;" parent="1" vertex="1">
                    <mxGeometry x="392.5" y="444" width="65" height="60" as="geometry"/>
                </mxCell>
                <mxCell id="198" value="" style="endArrow=none;html=1;exitX=0.5;exitY=0;exitDx=0;exitDy=0;entryX=0.5;entryY=1;entryDx=0;entryDy=0;" parent="1" source="197" target="12" edge="1">
                    <mxGeometry width="50" height="50" relative="1" as="geometry">
                        <mxPoint x="550" y="540" as="sourcePoint"/>
                        <mxPoint x="425" y="400" as="targetPoint"/>
                    </mxGeometry>
                </mxCell>
                <mxCell id="212" value="1" style="edgeLabel;html=1;align=center;verticalAlign=middle;resizable=0;points=[];" parent="198" vertex="1" connectable="0">
                    <mxGeometry x="0.5237" relative="1" as="geometry">
                        <mxPoint as="offset"/>
                    </mxGeometry>
                </mxCell>
                <mxCell id="199" value="" style="endArrow=none;html=1;entryX=0.5;entryY=1;entryDx=0;entryDy=0;" parent="1" source="13" target="197" edge="1">
                    <mxGeometry width="50" height="50" relative="1" as="geometry">
                        <mxPoint x="550" y="540" as="sourcePoint"/>
                        <mxPoint x="600" y="490" as="targetPoint"/>
                        <Array as="points">
                            <mxPoint x="689" y="530"/>
                            <mxPoint x="425" y="530"/>
                        </Array>
                    </mxGeometry>
                </mxCell>
                <mxCell id="211" value="n" style="edgeLabel;html=1;align=center;verticalAlign=middle;resizable=0;points=[];" parent="199" vertex="1" connectable="0">
                    <mxGeometry x="0.3471" relative="1" as="geometry">
                        <mxPoint as="offset"/>
                    </mxGeometry>
                </mxCell>
                <mxCell id="200" value="Of" style="rhombus;whiteSpace=wrap;html=1;fontSize=15;" parent="1" vertex="1">
                    <mxGeometry x="1218" y="227.75" width="80" height="59.5" as="geometry"/>
                </mxCell>
                <mxCell id="201" value="" style="endArrow=none;html=1;entryX=0;entryY=0.5;entryDx=0;entryDy=0;exitX=1;exitY=0.5;exitDx=0;exitDy=0;" parent="1" source="2" target="200" edge="1">
                    <mxGeometry width="50" height="50" relative="1" as="geometry">
                        <mxPoint x="1050" y="380" as="sourcePoint"/>
                        <mxPoint x="1100" y="330" as="targetPoint"/>
                    </mxGeometry>
                </mxCell>
                <mxCell id="216" value="1" style="edgeLabel;html=1;align=center;verticalAlign=middle;resizable=0;points=[];" parent="201" vertex="1" connectable="0">
                    <mxGeometry x="-0.4507" y="-4" relative="1" as="geometry">
                        <mxPoint x="-1" as="offset"/>
                    </mxGeometry>
                </mxCell>
                <mxCell id="202" value="" style="endArrow=none;html=1;entryX=0.5;entryY=1;entryDx=0;entryDy=0;exitX=0.5;exitY=0;exitDx=0;exitDy=0;" parent="1" source="14" target="200" edge="1">
                    <mxGeometry width="50" height="50" relative="1" as="geometry">
                        <mxPoint x="1085" y="267.5" as="sourcePoint"/>
                        <mxPoint x="1223.9999999999998" y="267.5" as="targetPoint"/>
                    </mxGeometry>
                </mxCell>
                <mxCell id="217" value="n" style="edgeLabel;html=1;align=center;verticalAlign=middle;resizable=0;points=[];" parent="202" vertex="1" connectable="0">
                    <mxGeometry x="-0.2941" y="2" relative="1" as="geometry">
                        <mxPoint as="offset"/>
                    </mxGeometry>
                </mxCell>
                <mxCell id="205" value="StockID" style="ellipse;whiteSpace=wrap;html=1;fontSize=13;fontStyle=0;" parent="1" vertex="1">
                    <mxGeometry x="1545" y="375" width="130" height="50" as="geometry"/>
                </mxCell>
                <mxCell id="206" value="" style="endArrow=none;html=1;entryX=1;entryY=0.5;entryDx=0;entryDy=0;exitX=0;exitY=0.5;exitDx=0;exitDy=0;" parent="1" source="205" target="14" edge="1">
                    <mxGeometry width="50" height="50" relative="1" as="geometry">
                        <mxPoint x="1010" y="500" as="sourcePoint"/>
                        <mxPoint x="1060" y="450" as="targetPoint"/>
                    </mxGeometry>
                </mxCell>
                <mxCell id="207" value="ProductID" style="ellipse;whiteSpace=wrap;html=1;fontSize=13;fontStyle=0;" parent="1" vertex="1">
                    <mxGeometry x="257" y="660.75" width="120" height="50" as="geometry"/>
                </mxCell>
                <mxCell id="208" value="" style="endArrow=none;html=1;exitX=0.5;exitY=1;exitDx=0;exitDy=0;" parent="1" source="72" target="207" edge="1">
                    <mxGeometry width="50" height="50" relative="1" as="geometry">
                        <mxPoint x="930" y="790" as="sourcePoint"/>
                        <mxPoint x="980" y="740" as="targetPoint"/>
                    </mxGeometry>
                </mxCell>
                <mxCell id="220" value="." style="text;html=1;strokeColor=none;fillColor=none;align=center;verticalAlign=middle;whiteSpace=wrap;rounded=0;" parent="1" vertex="1">
                    <mxGeometry x="20" y="490" width="60" height="30" as="geometry"/>
                </mxCell>
                <mxCell id="221" value="." style="text;html=1;strokeColor=none;fillColor=none;align=center;verticalAlign=middle;whiteSpace=wrap;rounded=0;" parent="1" vertex="1">
                    <mxGeometry x="815" y="1070" width="60" height="30" as="geometry"/>
                </mxCell>
                <mxCell id="222" value="." style="text;html=1;strokeColor=none;fillColor=none;align=center;verticalAlign=middle;whiteSpace=wrap;rounded=0;" parent="1" vertex="1">
                    <mxGeometry x="1580" y="500" width="60" height="30" as="geometry"/>
                </mxCell>
                <mxCell id="223" value="." style="text;html=1;strokeColor=none;fillColor=none;align=center;verticalAlign=middle;whiteSpace=wrap;rounded=0;" parent="1" vertex="1">
                    <mxGeometry x="807.5" y="19.5" width="60" height="30" as="geometry"/>
                </mxCell>
                <mxCell id="224" value="SalesReport" style="rounded=1;whiteSpace=wrap;html=1;fontSize=15;" parent="1" vertex="1">
                    <mxGeometry x="1305" y="515" width="175" height="45" as="geometry"/>
                </mxCell>
                <mxCell id="227" value="SalesReportID" style="ellipse;whiteSpace=wrap;html=1;fontSize=13;fontStyle=0;" parent="1" vertex="1">
                    <mxGeometry x="1520" y="445" width="130" height="50" as="geometry"/>
                </mxCell>
                <mxCell id="228" value="ReportID" style="ellipse;whiteSpace=wrap;html=1;fontSize=13;fontStyle=0;" parent="1" vertex="1">
                    <mxGeometry x="1520" y="512.5" width="130" height="50" as="geometry"/>
                </mxCell>
                <mxCell id="229" value="SalesID" style="ellipse;whiteSpace=wrap;html=1;fontSize=13;fontStyle=0;" parent="1" vertex="1">
                    <mxGeometry x="1520" y="570" width="130" height="50" as="geometry"/>
                </mxCell>
                <mxCell id="230" value="" style="endArrow=none;html=1;entryX=0;entryY=0.5;entryDx=0;entryDy=0;exitX=1;exitY=0.5;exitDx=0;exitDy=0;" parent="1" source="224" target="227" edge="1">
                    <mxGeometry width="50" height="50" relative="1" as="geometry">
                        <mxPoint x="1370" y="560" as="sourcePoint"/>
                        <mxPoint x="1420" y="510" as="targetPoint"/>
                    </mxGeometry>
                </mxCell>
                <mxCell id="231" value="" style="endArrow=none;html=1;entryX=0;entryY=0.5;entryDx=0;entryDy=0;" parent="1" target="228" edge="1">
                    <mxGeometry width="50" height="50" relative="1" as="geometry">
                        <mxPoint x="1480" y="540" as="sourcePoint"/>
                        <mxPoint x="1420" y="510" as="targetPoint"/>
                    </mxGeometry>
                </mxCell>
                <mxCell id="232" value="" style="endArrow=none;html=1;entryX=0;entryY=0.5;entryDx=0;entryDy=0;exitX=1;exitY=0.5;exitDx=0;exitDy=0;" parent="1" source="224" target="229" edge="1">
                    <mxGeometry width="50" height="50" relative="1" as="geometry">
                        <mxPoint x="1370" y="560" as="sourcePoint"/>
                        <mxPoint x="1420" y="510" as="targetPoint"/>
                    </mxGeometry>
                </mxCell>
                <mxCell id="233" value="in" style="rhombus;whiteSpace=wrap;html=1;fontSize=15;" parent="1" vertex="1">
                    <mxGeometry x="1218" y="430" width="77" height="70" as="geometry"/>
                </mxCell>
                <mxCell id="234" value="in" style="rhombus;whiteSpace=wrap;html=1;fontSize=15;" parent="1" vertex="1">
                    <mxGeometry x="1270.75" y="630" width="69.5" height="57.5" as="geometry"/>
                </mxCell>
                <mxCell id="235" value="" style="endArrow=none;html=1;entryX=0.5;entryY=1;entryDx=0;entryDy=0;exitX=0.5;exitY=0;exitDx=0;exitDy=0;" parent="1" source="233" target="14" edge="1">
                    <mxGeometry width="50" height="50" relative="1" as="geometry">
                        <mxPoint x="1330" y="590" as="sourcePoint"/>
                        <mxPoint x="1380" y="540" as="targetPoint"/>
                    </mxGeometry>
                </mxCell>
                <mxCell id="237" value="1" style="edgeLabel;html=1;align=center;verticalAlign=middle;resizable=0;points=[];" parent="235" vertex="1" connectable="0">
                    <mxGeometry x="0.5003" y="-3" relative="1" as="geometry">
                        <mxPoint as="offset"/>
                    </mxGeometry>
                </mxCell>
                <mxCell id="236" value="" style="endArrow=none;html=1;entryX=0;entryY=0.5;entryDx=0;entryDy=0;exitX=0.5;exitY=1;exitDx=0;exitDy=0;" parent="1" source="233" target="224" edge="1">
                    <mxGeometry width="50" height="50" relative="1" as="geometry">
                        <mxPoint x="1266.5" y="440" as="sourcePoint"/>
                        <mxPoint x="1267.5" y="385" as="targetPoint"/>
                        <Array as="points">
                            <mxPoint x="1257" y="540"/>
                        </Array>
                    </mxGeometry>
                </mxCell>
                <mxCell id="238" value="n" style="edgeLabel;html=1;align=center;verticalAlign=middle;resizable=0;points=[];" parent="236" vertex="1" connectable="0">
                    <mxGeometry x="0.167" y="-1" relative="1" as="geometry">
                        <mxPoint as="offset"/>
                    </mxGeometry>
                </mxCell>
                <mxCell id="239" value="" style="endArrow=none;html=1;entryX=0.5;entryY=0;entryDx=0;entryDy=0;exitX=0.5;exitY=1;exitDx=0;exitDy=0;" parent="1" source="234" target="16" edge="1">
                    <mxGeometry width="50" height="50" relative="1" as="geometry">
                        <mxPoint x="1330" y="690" as="sourcePoint"/>
                        <mxPoint x="1350" y="600" as="targetPoint"/>
                    </mxGeometry>
                </mxCell>
                <mxCell id="241" value="1" style="edgeLabel;html=1;align=center;verticalAlign=middle;resizable=0;points=[];" parent="239" vertex="1" connectable="0">
                    <mxGeometry x="0.2951" relative="1" as="geometry">
                        <mxPoint as="offset"/>
                    </mxGeometry>
                </mxCell>
                <mxCell id="240" value="" style="endArrow=none;html=1;entryX=0.5;entryY=1;entryDx=0;entryDy=0;exitX=0.5;exitY=0;exitDx=0;exitDy=0;" parent="1" source="234" target="224" edge="1">
                    <mxGeometry width="50" height="50" relative="1" as="geometry">
                        <mxPoint x="1276.5" y="450" as="sourcePoint"/>
                        <mxPoint x="1277.5" y="395" as="targetPoint"/>
                        <Array as="points">
                            <mxPoint x="1306" y="590"/>
                            <mxPoint x="1393" y="590"/>
                        </Array>
                    </mxGeometry>
                </mxCell>
                <mxCell id="242" value="n" style="edgeLabel;html=1;align=center;verticalAlign=middle;resizable=0;points=[];" parent="240" vertex="1" connectable="0">
                    <mxGeometry x="-0.6251" y="1" relative="1" as="geometry">
                        <mxPoint as="offset"/>
                    </mxGeometry>
                </mxCell>
                <mxCell id="243" value="" style="endArrow=none;html=1;entryX=0.5;entryY=1;entryDx=0;entryDy=0;exitX=0;exitY=0.5;exitDx=0;exitDy=0;" parent="1" source="120" target="143" edge="1">
                    <mxGeometry width="50" height="50" relative="1" as="geometry">
                        <mxPoint x="1080" y="775.75" as="sourcePoint"/>
                        <mxPoint x="1130" y="725.75" as="targetPoint"/>
                    </mxGeometry>
                </mxCell>
                <mxCell id="247" value="of" style="rhombus;whiteSpace=wrap;html=1;fontSize=15;" parent="1" vertex="1">
                    <mxGeometry x="192" y="373" width="65" height="60" as="geometry"/>
                </mxCell>
                <mxCell id="248" value="" style="endArrow=none;html=1;entryX=0;entryY=0.5;entryDx=0;entryDy=0;exitX=0.5;exitY=0;exitDx=0;exitDy=0;" parent="1" source="247" target="12" edge="1">
                    <mxGeometry width="50" height="50" relative="1" as="geometry">
                        <mxPoint x="510" y="470" as="sourcePoint"/>
                        <mxPoint x="560" y="420" as="targetPoint"/>
                    </mxGeometry>
                </mxCell>
                <mxCell id="250" value="1" style="edgeLabel;html=1;align=center;verticalAlign=middle;resizable=0;points=[];" parent="248" vertex="1" connectable="0">
                    <mxGeometry x="-0.4322" y="-3" relative="1" as="geometry">
                        <mxPoint as="offset"/>
                    </mxGeometry>
                </mxCell>
                <mxCell id="249" value="" style="endArrow=none;html=1;entryX=0.5;entryY=1;entryDx=0;entryDy=0;exitX=0.25;exitY=0;exitDx=0;exitDy=0;" parent="1" source="72" target="247" edge="1">
                    <mxGeometry width="50" height="50" relative="1" as="geometry">
                        <mxPoint x="510" y="470" as="sourcePoint"/>
                        <mxPoint x="560" y="420" as="targetPoint"/>
                    </mxGeometry>
                </mxCell>
                <mxCell id="251" value="n" style="edgeLabel;html=1;align=center;verticalAlign=middle;resizable=0;points=[];" parent="249" vertex="1" connectable="0">
                    <mxGeometry x="-0.5352" relative="1" as="geometry">
                        <mxPoint as="offset"/>
                    </mxGeometry>
                </mxCell>
            </root>
        </mxGraphModel>
    </diagram>
</mxfile>